<mxfile modified="2022-05-05T03:00:14.574Z" host="app.diagrams.net" agent="5.0 (Windows NT 10.0; Win64; x64) AppleWebKit/537.36 (KHTML, like Gecko) Chrome/100.0.4896.127 Safari/537.36 Edg/100.0.1185.50" etag="D8R90S2Ld1F6TSQVt_6C" compressed="false" version="17.5.0" type="google">
  <diagram name="Development/Information Service/Component Design Patterns/BITS" id="0hX0X3lSt8-MCckgjYK9">
    <mxGraphModel grid="1" page="1" gridSize="10" guides="1" tooltips="1" connect="1" arrows="1" fold="1" pageScale="1" pageWidth="827" pageHeight="1169" math="0" shadow="0">
      <root>
        <mxCell id="dj5P62NVTzrEaMSQ5yLb-0" />
        <mxCell id="dj5P62NVTzrEaMSQ5yLb-1" value="Diagram" parent="dj5P62NVTzrEaMSQ5yLb-0" />
        <mxCell id="E1thnJCEbyRZ1VIeeraY-0" value="A Logical Module" style="rounded=0;whiteSpace=wrap;html=1;fontSize=12;fontColor=#666666;align=left;dashed=1;labelPosition=center;verticalLabelPosition=middle;verticalAlign=top;" vertex="1" parent="dj5P62NVTzrEaMSQ5yLb-1">
          <mxGeometry x="130" y="190" width="340" height="240" as="geometry" />
        </mxCell>
        <mxCell id="dj5P62NVTzrEaMSQ5yLb-3" value="Non-Tech &lt;br&gt;(e.g. Business)&lt;br&gt;Domain" style="ellipse;whiteSpace=wrap;html=1;aspect=fixed;rounded=1;shadow=0;glass=0;labelBackgroundColor=none;strokeColor=none;strokeWidth=1;fillColor=#736CA8;gradientColor=none;fontFamily=Helvetica;fontSize=16;fontColor=#2F5B7C;align=right;opacity=10;spacing=15;" vertex="1" parent="dj5P62NVTzrEaMSQ5yLb-1">
          <mxGeometry x="280" y="230" width="180" height="180" as="geometry" />
        </mxCell>
        <mxCell id="dj5P62NVTzrEaMSQ5yLb-29" value="Technology&lt;br&gt;Domain" style="ellipse;whiteSpace=wrap;html=1;aspect=fixed;rounded=1;shadow=0;glass=0;labelBackgroundColor=none;strokeColor=#999999;strokeWidth=1;fillColor=#12AAB5;gradientColor=none;fontFamily=Helvetica;fontSize=16;fontColor=#2F5B7C;align=left;opacity=10;spacing=15;" vertex="1" parent="dj5P62NVTzrEaMSQ5yLb-1">
          <mxGeometry x="140" y="230" width="180" height="180" as="geometry" />
        </mxCell>
        <mxCell id="hH72Cee2B7NXsWCxl-aL-0" value="Information&lt;br&gt;(Messages)" style="text;html=1;strokeColor=none;fillColor=none;align=center;verticalAlign=middle;whiteSpace=wrap;rounded=0;fontSize=12;fontColor=#666666;" vertex="1" parent="dj5P62NVTzrEaMSQ5yLb-1">
          <mxGeometry x="280" y="295" width="40" height="20" as="geometry" />
        </mxCell>
        <mxCell id="hH72Cee2B7NXsWCxl-aL-1" value="Service" style="shape=flexArrow;endArrow=classic;html=1;strokeColor=#CC0000;fontSize=12;fontColor=#666666;" edge="1" parent="dj5P62NVTzrEaMSQ5yLb-1">
          <mxGeometry width="50" height="50" relative="1" as="geometry">
            <mxPoint x="299.8" y="230" as="sourcePoint" />
            <mxPoint x="299.8" y="160" as="targetPoint" />
          </mxGeometry>
        </mxCell>
        <mxCell id="hH72Cee2B7NXsWCxl-aL-2" value="Dependencies" style="shape=flexArrow;endArrow=classic;html=1;fontSize=12;fontColor=#666666;strokeColor=#004C99;" edge="1" parent="dj5P62NVTzrEaMSQ5yLb-1">
          <mxGeometry width="50" height="50" relative="1" as="geometry">
            <mxPoint x="300" y="410" as="sourcePoint" />
            <mxPoint x="300" y="480" as="targetPoint" />
          </mxGeometry>
        </mxCell>
        <mxCell id="dj5P62NVTzrEaMSQ5yLb-37" value="Title/Page" visible="0" parent="dj5P62NVTzrEaMSQ5yLb-0" />
        <mxCell id="dj5P62NVTzrEaMSQ5yLb-38" value="" style="group;fontSize=10;" vertex="1" connectable="0" parent="dj5P62NVTzrEaMSQ5yLb-37">
          <mxGeometry x="120" y="120" width="560" height="45" as="geometry" />
        </mxCell>
        <mxCell id="dj5P62NVTzrEaMSQ5yLb-39" value="&lt;font style=&quot;font-size: 12px&quot;&gt;Base Logical Module -&amp;nbsp;Development - DDD Logical Module&lt;/font&gt;" style="text;strokeColor=none;fillColor=none;html=1;fontSize=24;fontStyle=1;verticalAlign=middle;align=left;shadow=0;glass=0;comic=0;opacity=30;fontColor=#808080;" vertex="1" parent="dj5P62NVTzrEaMSQ5yLb-38">
          <mxGeometry width="560" height="40" as="geometry" />
        </mxCell>
        <mxCell id="dj5P62NVTzrEaMSQ5yLb-40" value="" style="line;strokeWidth=2;html=1;shadow=0;glass=0;comic=0;fillColor=none;fontSize=10;fontColor=#CCCCCC;labelBackgroundColor=none;strokeColor=#CCCCCC;" vertex="1" parent="dj5P62NVTzrEaMSQ5yLb-38">
          <mxGeometry y="35" width="560" height="10" as="geometry" />
        </mxCell>
        <mxCell id="dj5P62NVTzrEaMSQ5yLb-41" value="Title/Diagram" parent="dj5P62NVTzrEaMSQ5yLb-0" />
        <mxCell id="dj5P62NVTzrEaMSQ5yLb-42" value="&lt;font style=&quot;font-size: 12px ; font-weight: normal&quot;&gt;&lt;i&gt;Diagram: Base System Logical Module -&amp;nbsp;Development - Business IT Service (BITS)&lt;/i&gt;&lt;/font&gt;" style="text;strokeColor=none;fillColor=none;html=1;fontSize=24;fontStyle=1;verticalAlign=middle;align=left;shadow=0;glass=0;comic=0;opacity=30;fontColor=#808080;" vertex="1" parent="dj5P62NVTzrEaMSQ5yLb-41">
          <mxGeometry x="120" y="480" width="410" height="20" as="geometry" />
        </mxCell>
        <mxCell id="dj5P62NVTzrEaMSQ5yLb-43" value="About" parent="dj5P62NVTzrEaMSQ5yLb-0" />
      </root>
    </mxGraphModel>
  </diagram>
</mxfile>
